<?xml version="1.0" encoding="utf-8"?>
<!-- Generator: Adobe Illustrator 23.0.3, SVG Export Plug-In . SVG Version: 6.00 Build 0)  -->
<svg version="1.1" id="Layer_1" xmlns="http://www.w3.org/2000/svg" xmlns:xlink="http://www.w3.org/1999/xlink" x="0px" y="0px"
	 viewBox="0 0 93.29 30" style="enable-background:new 0 0 93.29 30;" xml:space="preserve">
<style type="text/css">
	.st0{fill:#8752CC;}
	.st1{fill:#FFFFFF;}
	.st2{fill:#FFC100;}
	.st3{fill:#FF3390;}
	.st4{fill:#00CC3E;}
</style>
<g>
	<path class="st0" d="M24.31,1.25c1.25,0,2.28,1.03,2.28,2.28c0,1.25-1.03,2.28-2.28,2.28c-1.25,0-2.28-1.03-2.28-2.28
		C22.02,2.28,23.06,1.25,24.31,1.25z"/>
	<rect x="22.4" y="9.26" class="st1" width="3.82" height="13.55"/>
	<path class="st1" d="M40.17,9.26h3.82v12.92c0,2.06-0.19,4.22-1.88,5.91C41.17,29.03,39.54,30,36.76,30
		c-2.63,0-4.19-0.78-5.07-1.56c-1.06-0.91-1.88-2.5-2.19-4.03h4.13c0.16,0.63,0.5,1.25,0.94,1.63c0.75,0.69,1.78,0.72,2.31,0.72
		c1.1,0,1.81-0.38,2.32-0.85c0.88-0.84,0.97-1.91,0.97-3v-1.91c-1.31,2-3.13,2.25-4.16,2.25c-1.81,0-3.38-0.56-4.69-1.85
		c-1-1-2.16-2.75-2.16-5.38c0-2.13,0.78-4.1,2.1-5.38c1.19-1.16,2.85-1.81,4.66-1.81c2.53,0,3.72,1.38,4.25,2.19V9.26z M34.32,13.14
		c-0.63,0.56-1.22,1.47-1.22,2.88c0,1.19,0.44,2.06,1,2.66c0.81,0.88,1.85,1.19,2.75,1.19c0.94,0,1.88-0.34,2.53-0.94
		c0.78-0.72,1.22-1.81,1.22-2.91c0-1.28-0.56-2.16-1.09-2.72c-0.75-0.78-1.63-1.09-2.66-1.09C35.63,12.2,34.79,12.7,34.32,13.14z"/>
	<path class="st2" d="M74.8,5.82c-1.25,0-2.28-1.03-2.28-2.28c0-1.25,1.03-2.28,2.28-2.28c1.25,0,2.28,1.03,2.28,2.28
		C77.08,4.79,76.05,5.82,74.8,5.82z"/>
	<rect x="47.62" y="9.26" class="st1" width="3.82" height="13.55"/>
	<path class="st1" d="M58.88,11.01c1.35-1.88,3.25-2.19,4.41-2.19c4,0,6.66,3.1,6.66,7.19c0,4.13-2.75,7.23-6.76,7.23
		c-0.88,0-2.85-0.16-4.32-2.19v1.75h-3.82V0h3.82V11.01z M58.5,16.02c0,2.16,1.56,3.85,3.75,3.85s3.75-1.69,3.75-3.85
		s-1.56-3.82-3.75-3.82S58.5,13.86,58.5,16.02z"/>
	<path class="st3" d="M49.52,5.82c-1.25,0-2.28-1.03-2.28-2.28c0-1.25,1.03-2.28,2.28-2.28c1.25,0,2.28,1.03,2.28,2.28
		C51.81,4.79,50.77,5.82,49.52,5.82z"/>
	<rect x="72.89" y="9.26" class="st1" width="3.82" height="13.55"/>
	<path class="st1" d="M85.59,19.55h7.16v3.25H78.9l7.69-10.29h-6.51V9.26h13.2L85.59,19.55z"/>
	<path class="st4" d="M14.46,5.9c-2.52-2.44-5.82-2.7-7.79-2.7H0v3.73l13.7,13.71c0.34-0.26,0.66-0.53,0.94-0.81
		c1.91-1.91,2.55-4.2,2.55-6.79C17.2,10.93,16.76,8.11,14.46,5.9z"/>
	<polygon class="st0" points="0,18.59 0,23.2 4.62,23.2 	"/>
	<path class="st3" d="M0,10.24V15l8.22,8.2c1.46-0.05,2.8-0.34,3.96-0.79L0,10.24z"/>
</g>
</svg>
